<svg width="100" height="100" viewBox="0 0 100 100" fill="none" xmlns="http://www.w3.org/2000/svg">
  <circle cx="50" cy="35" r="25" fill="#4ADE80" />
  <circle cx="50" cy="35" r="20" fill="#22C55E" />
  <circle cx="30" cy="70" r="20" fill="#3B82F6" />
  <rect x="15" y="25" width="20" height="20" rx="5" fill="#F97316" />
  <path d="M55 70C55 65 60 60 65 60C70 60 75 65 75 70C75 75 70 80 65 80C60 80 55 75 55 70Z" fill="#3B82F6" opacity="0.7" />
  <path d="M60 85C60 82.5 62.5 80 65 80C67.5 80 70 82.5 70 85C70 87.5 67.5 90 65 90C62.5 90 60 87.5 60 85Z" fill="#3B82F6" opacity="0.5" />
  <path d="M65 75C65 72.5 67.5 70 70 70C72.5 70 75 72.5 75 75C75 77.5 72.5 80 70 80C67.5 80 65 77.5 65 75Z" fill="#3B82F6" opacity="0.5" />
  <path d="M50 85C50 82.5 52.5 80 55 80C57.5 80 60 82.5 60 85C60 87.5 57.5 90 55 90C52.5 90 50 87.5 50 85Z" fill="#3B82F6" opacity="0.5" />
  <path d="M55 75C55 72.5 57.5 70 60 70C62.5 70 65 72.5 65 75C65 77.5 62.5 80 60 80C57.5 80 55 77.5 55 75Z" fill="#3B82F6" opacity="0.5" />
  <path d="M45 75C45 72.5 47.5 70 50 70C52.5 70 55 72.5 55 75C55 77.5 52.5 80 50 80C47.5 80 45 77.5 45 75Z" fill="#3B82F6" opacity="0.5" />
  <path d="M40 85C40 82.5 42.5 80 45 80C47.5 80 50 82.5 50 85C50 87.5 47.5 90 45 90C42.5 90 40 87.5 40 85Z" fill="#3B82F6" opacity="0.5" />
  <path d="M35 75C35 72.5 37.5 70 40 70C42.5 70 45 72.5 45 75C45 77.5 42.5 80 40 80C37.5 80 35 77.5 35 75Z" fill="#3B82F6" opacity="0.5" />
  <path d="M30 85C30 82.5 32.5 80 35 80C37.5 80 40 82.5 40 85C40 87.5 37.5 90 35 90C32.5 90 30 87.5 30 85Z" fill="#3B82F6" opacity="0.5" />
  <path d="M25 75C25 72.5 27.5 70 30 70C32.5 70 35 72.5 35 75C35 77.5 32.5 80 30 80C27.5 80 25 77.5 25 75Z" fill="#3B82F6" opacity="0.5" />
  <path d="M20 85C20 82.5 22.5 80 25 80C27.5 80 30 82.5 30 85C30 87.5 27.5 90 25 90C22.5 90 20 87.5 20 85Z" fill="#3B82F6" opacity="0.5" />
  <path d="M65 90C65 92.5 62.5 95 60 95C57.5 95 55 92.5 55 90" stroke="#3B82F6" stroke-width="2" opacity="0.3" />
  <path d="M55 90C55 92.5 52.5 95 50 95C47.5 95 45 92.5 45 90" stroke="#3B82F6" stroke-width="2" opacity="0.3" />
  <path d="M45 90C45 92.5 42.5 95 40 95C37.5 95 35 92.5 35 90" stroke="#3B82F6" stroke-width="2" opacity="0.3" />
  <path d="M35 90C35 92.5 32.5 95 30 95C27.5 95 25 92.5 25 90" stroke="#3B82F6" stroke-width="2" opacity="0.3" />
</svg>

